<svg width="152" height="131" viewBox="0 0 152 131" fill="none" xmlns="http://www.w3.org/2000/svg">
<g filter="url(#filter0_d)">
<mask id="path-1-inside-1" fill="white">
<path fill-rule="evenodd" clip-rule="evenodd" d="M122 23.7895C122 22.1326 120.657 20.7895 119 20.7895H33C31.3431 20.7895 30 22.1326 30 23.7895V83.0471C30 84.704 31.3431 86.0471 33 86.0471H69.6415C70.6528 86.0471 71.596 86.5566 72.1505 87.4023L73.491 89.4472C74.6756 91.2541 77.3242 91.2541 78.5088 89.4472L79.8494 87.4023C80.4038 86.5566 81.347 86.0471 82.3583 86.0471H119C120.657 86.0471 122 84.704 122 83.0471V23.7895Z"/>
</mask>
<path fill-rule="evenodd" clip-rule="evenodd" d="M122 23.7895C122 22.1326 120.657 20.7895 119 20.7895H33C31.3431 20.7895 30 22.1326 30 23.7895V83.0471C30 84.704 31.3431 86.0471 33 86.0471H69.6415C70.6528 86.0471 71.596 86.5566 72.1505 87.4023L73.491 89.4472C74.6756 91.2541 77.3242 91.2541 78.5088 89.4472L79.8494 87.4023C80.4038 86.5566 81.347 86.0471 82.3583 86.0471H119C120.657 86.0471 122 84.704 122 83.0471V23.7895Z" fill="white"/>
<path d="M79.8494 87.4023L79.0131 86.854L79.8494 87.4023ZM73.491 89.4472L72.6547 89.9954L73.491 89.4472ZM78.5088 89.4472L79.3451 89.9954L78.5088 89.4472ZM72.1505 87.4023L71.3141 87.9506L72.1505 87.4023ZM33 21.7895H119V19.7895H33V21.7895ZM31 83.0471V23.7895H29V83.0471H31ZM69.6415 85.0471H33V87.0471H69.6415V85.0471ZM74.3273 88.8989L72.9868 86.854L71.3141 87.9506L72.6547 89.9954L74.3273 88.8989ZM79.0131 86.854L77.6725 88.8989L79.3451 89.9954L80.6857 87.9506L79.0131 86.854ZM119 85.0471H82.3583V87.0471H119V85.0471ZM121 23.7895V83.0471H123V23.7895H121ZM119 87.0471C121.209 87.0471 123 85.2562 123 83.0471H121C121 84.1517 120.105 85.0471 119 85.0471V87.0471ZM80.6857 87.9506C81.0553 87.3868 81.6841 87.0471 82.3583 87.0471V85.0471C81.01 85.0471 79.7523 85.7264 79.0131 86.854L80.6857 87.9506ZM72.6547 89.9954C74.2342 92.4047 77.7657 92.4047 79.3451 89.9954L77.6725 88.8989C76.8828 90.1035 75.117 90.1035 74.3273 88.8989L72.6547 89.9954ZM69.6415 87.0471C70.3157 87.0471 70.9445 87.3868 71.3141 87.9506L72.9868 86.854C72.2475 85.7264 70.9899 85.0471 69.6415 85.0471V87.0471ZM29 83.0471C29 85.2562 30.7909 87.0471 33 87.0471V85.0471C31.8954 85.0471 31 84.1517 31 83.0471H29ZM119 21.7895C120.105 21.7895 121 22.6849 121 23.7895H123C123 21.5803 121.209 19.7895 119 19.7895V21.7895ZM33 19.7895C30.7909 19.7895 29 21.5803 29 23.7895H31C31 22.6849 31.8954 21.7895 33 21.7895V19.7895Z" fill="#D8E0F7" mask="url(#path-1-inside-1)"/>
<path d="M59 55.0895C59 45.2617 66.6683 37.2947 76.1277 37.2947C77.8711 37.2947 79.5537 37.5654 81.1387 38.0684" stroke="#5F82FF" stroke-width="4" stroke-linecap="round" stroke-linejoin="round"/>
<path fill-rule="evenodd" clip-rule="evenodd" d="M72.4416 58.919C74.4773 61.034 77.7778 61.034 79.8135 58.919C81.8493 56.804 90.2764 41.9369 89.5317 41.1632C88.787 40.3895 74.4773 49.1449 72.4416 51.2599C70.4059 53.3749 70.4059 56.804 72.4416 58.919ZM76.1276 56.6369C76.9502 56.6369 77.617 55.9441 77.617 55.0895C77.617 54.2349 76.9502 53.5421 76.1276 53.5421C75.3051 53.5421 74.6383 54.2349 74.6383 55.0895C74.6383 55.9441 75.3051 56.6369 76.1276 56.6369Z" fill="#5F82FF"/>
<ellipse cx="61.234" cy="64.3737" rx="1.48936" ry="1.54737" fill="#5F82FF"/>
<ellipse cx="67.1915" cy="70.5632" rx="1.48936" ry="1.54737" fill="#5F82FF"/>
<ellipse cx="76.1275" cy="72.8842" rx="1.48936" ry="1.54737" fill="#5F82FF"/>
<ellipse cx="85.0638" cy="70.5632" rx="1.48936" ry="1.54737" fill="#5F82FF"/>
<ellipse cx="90.2767" cy="64.3737" rx="1.48936" ry="1.54737" fill="#5F82FF"/>
<ellipse cx="92.5106" cy="55.0895" rx="1.48936" ry="1.54737" fill="#5F82FF"/>
</g>
<defs>
<filter id="filter0_d" x="0" y="0.789459" width="152" height="130.013" filterUnits="userSpaceOnUse" color-interpolation-filters="sRGB">
<feFlood flood-opacity="0" result="BackgroundImageFix"/>
<feColorMatrix in="SourceAlpha" type="matrix" values="0 0 0 0 0 0 0 0 0 0 0 0 0 0 0 0 0 0 127 0"/>
<feOffset dy="10"/>
<feGaussianBlur stdDeviation="15"/>
<feColorMatrix type="matrix" values="0 0 0 0 0.894415 0 0 0 0 0.918495 0 0 0 0 0.984716 0 0 0 1 0"/>
<feBlend mode="normal" in2="BackgroundImageFix" result="effect1_dropShadow"/>
<feBlend mode="normal" in="SourceGraphic" in2="effect1_dropShadow" result="shape"/>
</filter>
</defs>
</svg>
